<svg xmlns="http://www.w3.org/2000/svg" xmlns:xlink="http://www.w3.org/1999/xlink" width="348" height="348" viewBox="0 0 348 348"><defs><clipPath id="a"><rect width="48.397" height="64.487" fill="#952c31"/></clipPath></defs><g transform="translate(-389 -1182)"><g transform="translate(-3 -179)"><circle cx="174" cy="174" r="174" transform="translate(392 1361)" fill="#fc3c80"/></g><text transform="translate(431 1397)" fill="#821d30" font-size="50" font-family="AvenirNext-Bold, Avenir Next" font-weight="700" letter-spacing="0.05em"><tspan x="0" y="0">My</tspan><tspan x="0" y="60">SYUMMY</tspan></text><g transform="translate(-1.944 -126.508)"><g transform="translate(534.336 1424.081)"><g transform="translate(0 0)"><g transform="translate(0 0)" clip-path="url(#a)"><g transform="translate(0 1.879)"><path d="M1825.408,2306.534V2287.3c0-6.648,10.889-17.078,24.2-17.078s24.2,10.433,24.2,17.078v19.232Zm12.1-51.548a12.1,12.1,0,1,1,12.1,12.082A12.091,12.091,0,0,1,1837.507,2254.987Z" transform="translate(-1825.408 -2242.901)" fill="#952c31"/></g></g></g></g></g><path d="M117.218,102.757,94.076,79.615a5.567,5.567,0,0,0-3.946-1.625H86.347a48.258,48.258,0,1,0-8.356,8.356V90.13a5.567,5.567,0,0,0,1.625,3.946l23.142,23.142a5.548,5.548,0,0,0,7.869,0l6.569-6.569A5.6,5.6,0,0,0,117.218,102.757ZM48.28,77.991A29.711,29.711,0,1,1,77.991,48.28,29.694,29.694,0,0,1,48.28,77.991Z" transform="translate(509 1272.986)" fill="#952c31"/></g></svg>