<svg xmlns="http://www.w3.org/2000/svg" width="348" height="347" viewBox="0 0 348 347"><g transform="translate(-390 -1658)"><ellipse cx="174" cy="173.5" rx="174" ry="173.5" transform="translate(390 1658)" fill="#fc3c80"/><text transform="translate(561 1961)" fill="#821d30" font-size="50" font-family="AvenirNext-Bold, Avenir Next" font-weight="700" letter-spacing="0.1em"><tspan x="-68.175" y="0">View</tspan></text><path d="M117.218,102.757,94.076,79.615a5.567,5.567,0,0,0-3.946-1.625H86.347a48.258,48.258,0,1,0-8.356,8.356V90.13a5.567,5.567,0,0,0,1.625,3.946l23.142,23.142a5.548,5.548,0,0,0,7.869,0l6.569-6.569A5.6,5.6,0,0,0,117.218,102.757ZM48.28,77.991A29.711,29.711,0,1,1,77.991,48.28,29.694,29.694,0,0,1,48.28,77.991Z" transform="translate(509 1769.986)" fill="#952c31"/></g></svg>