<svg xmlns="http://www.w3.org/2000/svg" xmlns:xlink="http://www.w3.org/1999/xlink" width="129" height="129.022" viewBox="0 0 129 129.022"><defs><clipPath id="a"><rect width="43.885" height="61.14" fill="#d17064"/></clipPath></defs><g transform="translate(-495 -43.986)"><g transform="translate(-9.432 -1352.508)"><g transform="translate(534.336 1424.081)"><g transform="translate(0 0)"><g transform="translate(0 0)" clip-path="url(#a)"><g transform="translate(0 1.781)"><path d="M1825.408,2303.231V2285c0-6.3,9.874-16.192,21.942-16.192s21.943,9.891,21.943,16.192v18.234Zm10.97-48.872a10.981,10.981,0,1,1,10.972,11.455A11.222,11.222,0,0,1,1836.379,2254.359Z" transform="translate(-1825.408 -2242.901)" fill="#d17064"/></g></g></g></g></g><path d="M127.246,111.548,102.124,86.426a6.043,6.043,0,0,0-4.284-1.764H93.733a52.386,52.386,0,1,0-9.071,9.071v4.107a6.043,6.043,0,0,0,1.764,4.284l25.122,25.122a6.022,6.022,0,0,0,8.542,0l7.131-7.131A6.076,6.076,0,0,0,127.246,111.548ZM52.41,84.662A32.252,32.252,0,1,1,84.662,52.41,32.234,32.234,0,0,1,52.41,84.662Z" transform="translate(495 43.986)" fill="#d17064"/></g></svg>