<svg xmlns="http://www.w3.org/2000/svg" width="70" height="80" viewBox="0 0 70 80"><path d="M23.125,45h-6.25A1.881,1.881,0,0,1,15,43.125v-6.25A1.881,1.881,0,0,1,16.875,35h6.25A1.881,1.881,0,0,1,25,36.875v6.25A1.881,1.881,0,0,1,23.125,45ZM40,43.125v-6.25A1.881,1.881,0,0,0,38.125,35h-6.25A1.881,1.881,0,0,0,30,36.875v6.25A1.881,1.881,0,0,0,31.875,45h6.25A1.881,1.881,0,0,0,40,43.125Zm15,0v-6.25A1.881,1.881,0,0,0,53.125,35h-6.25A1.881,1.881,0,0,0,45,36.875v6.25A1.881,1.881,0,0,0,46.875,45h6.25A1.881,1.881,0,0,0,55,43.125Zm-15,15v-6.25A1.881,1.881,0,0,0,38.125,50h-6.25A1.881,1.881,0,0,0,30,51.875v6.25A1.881,1.881,0,0,0,31.875,60h6.25A1.881,1.881,0,0,0,40,58.125Zm-15,0v-6.25A1.881,1.881,0,0,0,23.125,50h-6.25A1.881,1.881,0,0,0,15,51.875v6.25A1.881,1.881,0,0,0,16.875,60h6.25A1.881,1.881,0,0,0,25,58.125Zm30,0v-6.25A1.881,1.881,0,0,0,53.125,50h-6.25A1.881,1.881,0,0,0,45,51.875v6.25A1.881,1.881,0,0,0,46.875,60h6.25A1.881,1.881,0,0,0,55,58.125ZM70,17.5v55A7.5,7.5,0,0,1,62.5,80H7.5A7.5,7.5,0,0,1,0,72.5v-55A7.5,7.5,0,0,1,7.5,10H15V1.875A1.881,1.881,0,0,1,16.875,0h6.25A1.881,1.881,0,0,1,25,1.875V10H45V1.875A1.881,1.881,0,0,1,46.875,0h6.25A1.881,1.881,0,0,1,55,1.875V10h7.5A7.5,7.5,0,0,1,70,17.5ZM62.5,71.562V25H7.5V71.562a.94.94,0,0,0,.937.937H61.562A.94.94,0,0,0,62.5,71.562Z" fill="#d17064"/></svg>