<svg xmlns="http://www.w3.org/2000/svg" width="532.016" height="2080.708" viewBox="0 0 532.016 2080.708"><g transform="translate(-7853.929 -7409.018)"><g transform="translate(7856.893 7409.451)"><g transform="translate(-2001.325 2526.346)"><path d="M2352.984-1956.937l-2.93-547.133a22.71,22.71,0,0,0-22.71-22.709H2201.394a22.71,22.71,0,0,0-22.71,22.709l-2.93,547.133c-.125,20.15-15.992,38.56-33.51,48.519-80.62,45.831-143.883,132.546-143.883,231.431V-527.423a81.592,81.592,0,0,0,81.354,81.352h369.309a81.592,81.592,0,0,0,81.354-81.352V-1676.987c0-98.885-63.263-185.6-143.883-231.431C2368.975-1918.377,2353.109-1936.786,2352.984-1956.937Z" transform="translate(0 0)" fill="#821d30"/></g></g></g></svg>