<svg xmlns="http://www.w3.org/2000/svg" width="348" height="347" viewBox="0 0 348 347"><g transform="translate(-392 -935)"><path d="M174,0c96.1,0,174,77.679,174,173.5S270.1,347,174,347,0,269.321,0,173.5,77.9,0,174,0Z" transform="translate(392 935)" fill="#fc3c80"/><g transform="translate(522.185 953.37)"><path d="M900.4,3644.5c1-52.96-.449-68.967-.449-68.967,0-1.581-1.557-2.862-3.478-2.862H877.185c-1.921,0-3.478,1.282-3.478,2.862-1.445,3.767-.445,67.63-.449,68.967-.019,2.54-2.449,4.861-5.132,6.115-12.346,5.777-23.693,21.92-23.693,34.385l3.318,110.761h0c0,5.64,4.415,15.467,14.117,15.467h53.239c10.007,0,14.117-9.827,14.117-15.467V3685c0-12.465-11.347-28.608-23.693-34.385C902.848,3649.364,900.418,3647.043,900.4,3644.5Z" transform="translate(-844.433 -3572.674)" fill="none" stroke="#821d30" stroke-width="15"/></g><text transform="translate(564 1248)" fill="#821d30" font-size="50" font-family="AvenirNext-Bold, Avenir Next" font-weight="700" letter-spacing="0.1em"><tspan x="-70.825" y="0">Wine</tspan></text></g></svg>