<svg xmlns="http://www.w3.org/2000/svg" width="348" height="348" viewBox="0 0 348 348"><g transform="translate(-389 -1409)"><g transform="translate(-3 48)"><path d="M174,0A174,174,0,1,1,0,174,174,174,0,0,1,174,0Z" transform="translate(392 1361)" fill="#fc3c80"/><text transform="translate(499 1666)" fill="#821d30" font-size="50" font-family="AvenirNext-Bold, Avenir Next" font-weight="700" letter-spacing="0.05em"><tspan x="0" y="0">Post</tspan></text></g><path d="M395.9,125.072a107.6,107.6,0,0,0-13.867-13.939c-5.561-4.55-12.025-5.164-18.706-2.095-3.106,1.408-5.453,3.792-7.8,6.1q-45.827,45.718-91.545,91.509c-1.047,1.047-1.986,2.239-3.07,3.286a5.508,5.508,0,0,0-1.7,3.683c-1.047,9.642-2.239,19.248-3.322,28.854-.578,5.164,2.889,8.811,8.017,8.306,9.245-.939,18.453-1.95,27.662-3.106,1.7-.217,3.467-.217,5.02-1.7,6.428-6.067,12.531-12.387,18.778-18.6q38.3-38.243,76.558-76.522c4.153-4.153,7.511-8.667,7.584-15.817C399.183,132.041,398.533,128.249,395.9,125.072Zm-34.776,37.34q-28.384,28.222-56.624,56.516c-4.478,4.478-8.992,8.884-13.362,13.434a6.794,6.794,0,0,1-4.478,2.311c-4.875.469-9.714,1.083-14.481,1.625-1.553.289-2.058-.4-1.878-1.77l1.95-16.251c.144-1.228,1.156-1.769,1.878-2.528q29.739-29.793,59.549-59.585c3.575-3.575,7.042-7.259,10.725-10.761,1.192-1.156,1.806-1.119,2.925.036q6.771,6.988,13.759,13.723C362.456,160.462,362.42,161.112,361.12,162.412Zm23.112-23.22c-3.539,3.611-7.186,7.15-10.725,10.761-.9.9-1.445.975-2.347.036-4.767-4.839-9.606-9.642-14.445-14.445-.867-.867-1.083-1.408-.072-2.347,3.828-3.683,7.547-7.475,11.3-11.231a4.234,4.234,0,0,1,3.106-1.336,3.842,3.842,0,0,1,2.925,1.192c3.467,3.431,7.006,6.861,10.4,10.4C386.652,134.605,386.543,136.844,384.232,139.191Z" transform="translate(235.326 1386.915)" fill="#8b2530"/></g></svg>