<svg xmlns="http://www.w3.org/2000/svg" width="120" height="120" viewBox="0 0 120 120"><g transform="translate(-955 -39)"><g transform="translate(955 39)" fill="none"><path d="M5,0H115a5,5,0,0,1,5,5V115a5,5,0,0,1-5,5H5a5,5,0,0,1-5-5V5A5,5,0,0,1,5,0Z" stroke="none"/><path d="M 5 5 L 5.000007629394531 5 C 5.000007629394531 5 5 5.000007629394531 5 5 L 5 114.9999923706055 C 5 114.9999923706055 5.000007629394531 115 5 115 L 114.9999923706055 115 C 114.9999923706055 115 115 114.9999923706055 115 115 L 115 5.000007629394531 C 115 5.000007629394531 114.9999923706055 5 115 5 L 5 5 M 5 0 L 115 0 C 117.7614212036133 0 120 2.238578796386719 120 5 L 120 115 C 120 117.7614212036133 117.7614212036133 120 115 120 L 5 120 C 2.238578796386719 120 0 117.7614212036133 0 115 L 0 5 C 0 2.238578796386719 2.238578796386719 0 5 0 Z" stroke="none" fill="#a45d68"/></g><g transform="translate(7.251 2.349)"><line x2="73.327" transform="translate(971.5 64.5)" fill="none" stroke="#a45d68" stroke-linecap="round" stroke-width="7"/><line x2="73.327" transform="translate(971.5 97.104)" fill="none" stroke="#a45d68" stroke-linecap="round" stroke-width="7"/><line x2="73.327" transform="translate(971.5 128.802)" fill="none" stroke="#a45d68" stroke-linecap="round" stroke-width="7"/></g></g></svg>