<svg xmlns="http://www.w3.org/2000/svg" width="280" height="280" viewBox="0 0 280 280"><g transform="translate(-421 -2102)"><g transform="translate(-513 1060)"><circle cx="140" cy="140" r="140" transform="translate(934 1042)" fill="#d17064"/></g><g transform="translate(484.471 2178.036)"><path d="M496.117,111.127c0-8.467-6.033-14.447-14.5-14.5-7.567-.053-15.188-.053-22.755.053a2.71,2.71,0,0,1-3.122-2.223c-1.058-3.069-2.223-6.139-3.493-9.155-2.117-4.974-6.033-7.3-11.378-7.3H403.88c-6.615,0-11.483,3.44-13.759,9.684-.847,2.275-1.8,4.5-2.487,6.774-.529,1.64-1.376,2.223-3.175,2.17-7.3-.106-14.658.317-21.961-.159-8.361-.529-15.505,6.985-15.4,15.346q.476,40.562,0,81.177a15.448,15.448,0,0,0,15.4,15.4c19.739-.423,39.477-.106,59.216-.106H481.67c8.467,0,14.5-6.033,14.5-14.5Q496.091,152.509,496.117,111.127Zm-15.717,87.9H363.027c-4.921,0-6.562-1.588-6.562-6.456V112.4c0-4.868,1.64-6.456,6.562-6.456,9.208,0,18.469-.053,27.676.053,2.011,0,2.858-.635,3.493-2.487,1.376-4.075,2.911-8.1,4.5-12.118,1.217-3.175,2.54-4.075,5.821-4.075,11.907,0,23.813.053,35.667-.053,2.328,0,3.44.953,4.181,3.016,1.535,4.392,3.281,8.679,4.763,13.124.635,1.958,1.535,2.646,3.651,2.646,9.208-.159,18.469-.053,27.676-.053,4.763,0,6.4,1.64,6.4,6.35V192.78C486.8,197.384,485.163,199.024,480.4,199.024Z" transform="translate(-347.098 -78)" fill="#fff"/><path d="M456.994,152.8c-18.521,0-35.4,16.087-34.714,34.873-.741,18.892,16.193,34.926,34.662,34.926,18.945.053,34.926-16.352,34.979-34.767C492.026,169.1,475.78,152.8,456.994,152.8Zm-.212,60.486c-13.388-.106-25.824-11.96-25.189-25.665-.582-13.441,11.8-25.56,25.665-25.454,13.335.106,25.4,11.907,25.348,25.665C482.553,201.326,470.594,213.392,456.782,213.286Z" transform="translate(-382.483 -113.217)" fill="#fff"/></g></g></svg>