<svg xmlns="http://www.w3.org/2000/svg" width="923" height="126.817" viewBox="0 0 923 126.817"><g transform="translate(1024.118 1571.626)"><path d="M-1016.741-1474.845a5.887,5.887,0,0,1,4.391-1.932,7.548,7.548,0,0,1,4.919,1.932c7.9,6.5,15.457,9.836,22.307,9.836,10.188,0,17.916-5.093,17.916-14.4,0-24.239-55.68-18.267-55.68-58.314,0-18.443,14.4-33.9,38.291-33.9,11.241,0,20.024,2.283,29.333,7.553a6.491,6.491,0,0,1,3.161,5.62,5.921,5.921,0,0,1-.879,2.987l-3.337,5.8a6.8,6.8,0,0,1-5.8,3.513,6.884,6.884,0,0,1-3.161-.7c-6.5-3.162-12.3-4.566-17.565-4.566-10.714,0-17.213,5.444-17.213,13.524,0,25.469,55.68,17.389,55.68,58.315,0,20.726-18.091,34.778-41.1,34.778-13.349,0-24.239-3.688-36.358-14.929a6.913,6.913,0,0,1-2.284-5.094,5.448,5.448,0,0,1,1.581-3.864Z" transform="translate(0 0)" fill="#fff"/><path d="M-827.024-1517.937l27.576-46.9a9.22,9.22,0,0,1,7.9-4.567h6.323a6.521,6.521,0,0,1,6.5,6.675,5.958,5.958,0,0,1-.878,3.336l-37.589,61.652v44.79a6.6,6.6,0,0,1-6.5,6.5h-8.607a6.6,6.6,0,0,1-6.5-6.5v-44.79l-37.238-61.652a6.337,6.337,0,0,1-1.053-3.512,6.636,6.636,0,0,1,6.675-6.5h7.553a9.739,9.739,0,0,1,8.08,4.567Z" transform="translate(-19.344 -0.293)" fill="#fff"/><path d="M-620.37-1562.9a6.6,6.6,0,0,1,6.5-6.5h8.432a6.6,6.6,0,0,1,6.5,6.5v65.516c0,37.588-23.009,52.869-48.83,52.869-30.562,0-52.343-18.091-52.343-54.1V-1562.9a6.6,6.6,0,0,1,6.5-6.5h8.606a6.6,6.6,0,0,1,6.5,6.5v59.719c0,23.01,9.485,38.467,30.738,38.467,18.618,0,27.4-13.173,27.4-37.061Z" transform="translate(-42.627 -0.293)" fill="#fff"/><path d="M-484.347-1452.948a6.6,6.6,0,0,1-6.5,6.5h-8.607a6.6,6.6,0,0,1-6.5-6.5V-1562.9a6.6,6.6,0,0,1,6.5-6.5h10.012a10.915,10.915,0,0,1,8.431,4.391l38.818,53.045,37.062-53.045a10.32,10.32,0,0,1,8.254-4.391h8.607a6.6,6.6,0,0,1,6.5,6.5v109.954a6.6,6.6,0,0,1-6.5,6.5H-396.7a6.6,6.6,0,0,1-6.5-6.5v-82.378l-32.144,45.141c-2.283,3.162-5.269,4.743-8.255,4.743a10.6,10.6,0,0,1-8.432-4.743l-32.319-44.614Z" transform="translate(-68.171 -0.293)" fill="#fff"/><path d="M-261.67-1452.948a6.6,6.6,0,0,1-6.5,6.5h-8.607a6.6,6.6,0,0,1-6.5-6.5V-1562.9a6.6,6.6,0,0,1,6.5-6.5h10.012a10.913,10.913,0,0,1,8.431,4.391l38.818,53.045,37.061-53.045a10.321,10.321,0,0,1,8.255-4.391h8.606a6.6,6.6,0,0,1,6.5,6.5v109.954a6.6,6.6,0,0,1-6.5,6.5h-8.431a6.6,6.6,0,0,1-6.5-6.5v-82.378l-32.143,45.141c-2.284,3.162-5.27,4.743-8.255,4.743a10.6,10.6,0,0,1-8.432-4.743L-261.67-1534.8Z" transform="translate(-97.466 -0.293)" fill="#fff"/><path d="M-24.495-1517.937l27.576-46.9a9.221,9.221,0,0,1,7.9-4.567h6.323a6.521,6.521,0,0,1,6.5,6.675,5.958,5.958,0,0,1-.878,3.336l-37.588,61.652v44.79a6.6,6.6,0,0,1-6.5,6.5h-8.607a6.6,6.6,0,0,1-6.5-6.5v-44.79L-73.5-1559.39a6.331,6.331,0,0,1-1.054-3.512,6.637,6.637,0,0,1,6.675-6.5h7.553a9.738,9.738,0,0,1,8.08,4.567Z" transform="translate(-124.926 -0.293)" fill="#fff"/></g></svg>