<svg xmlns="http://www.w3.org/2000/svg" xmlns:xlink="http://www.w3.org/1999/xlink" width="139" height="134" viewBox="0 0 139 134"><defs><clipPath id="a"><rect width="139" height="134" fill="none"/></clipPath></defs><g clip-path="url(#a)"><rect width="135" height="135" fill="none"/><path d="M79.948,109.445c50.043,0,77.272-41.212,77.272-77.272v-3.68c5.151-3.68,9.567-8.831,13.247-13.983a61.091,61.091,0,0,1-15.454,4.416A28.632,28.632,0,0,0,166.786,4.208a67.5,67.5,0,0,1-16.926,6.623A26.282,26.282,0,0,0,129.99,2a27.649,27.649,0,0,0-27.229,27.229c0,2.208,0,4.416.736,5.887-22.814-1.472-42.683-11.775-55.93-28.7A28.183,28.183,0,0,0,43.887,20.4c0,9.567,5.151,17.662,11.775,22.814a24.809,24.809,0,0,1-12.511-3.68h0A26.9,26.9,0,0,0,65.229,66.025c-2.208.736-4.416.736-7.359.736a12.524,12.524,0,0,1-5.151-.736c3.68,11.039,13.247,18.4,25.757,19.134A55.563,55.563,0,0,1,44.623,96.934,20.375,20.375,0,0,1,38,96.2c11.775,8.831,26.493,13.247,41.948,13.247" transform="translate(-38 14.018)" fill="#fff" fill-rule="evenodd"/></g></svg>